<?xml version="1.0" encoding="utf-8"?>
<!-- Generator: Adobe Illustrator 15.0.0, SVG Export Plug-In . SVG Version: 6.00 Build 0)  -->
<!DOCTYPE svg PUBLIC "-//W3C//DTD SVG 1.1//EN" "http://www.w3.org/Graphics/SVG/1.1/DTD/svg11.dtd">
<svg version="1.1" xmlns="http://www.w3.org/2000/svg" xmlns:xlink="http://www.w3.org/1999/xlink" x="0px" y="0px"
	 width="841.89px" height="595.28px" viewBox="0 0 841.89 595.28" enable-background="new 0 0 841.89 595.28" xml:space="preserve">
<g id="Layer_2" display="none">
</g>
<g id="Layer_3">
	<path fill="#808285" d="M591.5,418.525c0,6.612-5.373,11.975-12,11.975H282c-6.627,0-12-5.362-12-11.975V173.038
		c0-6.614,5.373-11.975,12-11.975h297.5c6.627,0,12,5.361,12,11.975V418.525z"/>
	<path fill="#FFFFFF" d="M578.763,327.667v77.159c0,7.434-5.189,13.467-11.593,13.467H294.201c-6.395,0-11.584-6.033-11.584-13.467
		v-77.159H578.763z"/>
	<g>
		<text transform="matrix(1 0 0 1 292 305)" fill="#FFFFFF" font-family="'MyriadPro-Regular'" font-size="154">bit</text>
		<text transform="matrix(1 0 0 1 512 306)" fill="#FFF799" font-family="'MyriadPro-Bold'" font-size="60">in</text>
		<text transform="matrix(1 0 0 1 301 390)" fill="#414042" font-family="'MyriadPro-Bold'" font-size="60" letter-spacing="3">Graphics</text>
	</g>
</g>
</svg>
