<?xml version="1.0" encoding="utf-8"?>
<!-- Generator: Adobe Illustrator 15.0.0, SVG Export Plug-In . SVG Version: 6.00 Build 0)  -->
<!DOCTYPE svg PUBLIC "-//W3C//DTD SVG 1.1//EN" "http://www.w3.org/Graphics/SVG/1.1/DTD/svg11.dtd">
<svg version="1.1" xmlns="http://www.w3.org/2000/svg" xmlns:xlink="http://www.w3.org/1999/xlink" x="0px" y="0px"
	 width="841.89px" height="595.28px" viewBox="0 0 841.89 595.28" enable-background="new 0 0 841.89 595.28" xml:space="preserve">
<g id="Layer_2" display="none">
</g>
<g id="Layer_3">
	<path fill="#808285" d="M591.5,418.525c0,6.612-5.373,11.975-12,11.975H282c-6.627,0-12-5.362-12-11.975V173.038
		c0-6.614,5.373-11.975,12-11.975h297.5c6.627,0,12,5.361,12,11.975V418.525z"/>
	<path fill="#FFFFFF" d="M578.763,327.667v77.159c0,7.434-5.189,13.467-11.593,13.467H294.201c-6.395,0-11.584-6.033-11.584-13.467
		v-77.159H578.763z"/>
	<g display="none">
		<text transform="matrix(1 0 0 1 292 305)" display="inline" fill="#FFFFFF" font-family="'MyriadPro-Regular'" font-size="154">bit</text>
		<text transform="matrix(1 0 0 1 512 306)" display="inline" fill="#FFF799" font-family="'MyriadPro-Bold'" font-size="60">in</text>
		
			<text transform="matrix(1 0 0 1 301 390)" display="inline" fill="#414042" font-family="'MyriadPro-Bold'" font-size="60" letter-spacing="3">Graphics</text>
	</g>
	<g>
		<g>
			<path fill="#FFFFFF" d="M303.243,195.655h13.398v46.818h0.308c4.774-8.316,13.398-13.553,25.411-13.553
				c18.635,0,31.571,15.401,31.571,37.886c0,26.644-16.941,39.887-33.573,39.887c-10.781,0-19.405-4.157-25.104-13.86h-0.308
				L314.177,305h-11.55c0.308-5.082,0.616-12.628,0.616-19.251V195.655z M316.641,275.123c0,1.694,0.154,3.388,0.616,4.928
				c2.464,9.395,10.472,15.863,20.329,15.863c14.323,0,22.639-11.55,22.639-28.646c0-14.938-7.7-27.721-22.331-27.721
				c-9.086,0-17.711,6.468-20.483,16.633c-0.462,1.694-0.77,3.542-0.77,5.698V275.123z"/>
			<path fill="#FFFFFF" d="M405.959,209.516c0,4.62-3.234,8.316-8.625,8.316c-4.928,0-8.162-3.696-8.162-8.316
				s3.389-8.47,8.471-8.47C402.57,201.045,405.959,204.742,405.959,209.516z M390.866,305v-74.54h13.553V305H390.866z"/>
			<path fill="#FFFFFF" d="M443.226,212.596v17.865h19.404v10.319h-19.404v40.196c0,9.24,2.618,14.477,10.164,14.477
				c3.696,0,5.853-0.308,7.854-0.924l0.616,10.318c-2.618,0.924-6.776,1.848-12.013,1.848c-6.314,0-11.396-2.155-14.631-5.697
				c-3.696-4.159-5.236-10.781-5.236-19.559v-40.658h-11.55V230.46h11.55V216.6L443.226,212.596z"/>
		</g>
		<g>
			<path fill="#FFF799" d="M525.08,268.501c0,2.52-1.86,4.56-4.92,4.56c-2.881,0-4.74-2.04-4.74-4.56c0-2.58,1.92-4.56,4.859-4.56
				C523.22,263.942,525.02,265.922,525.08,268.501z M515.66,306v-29.339h9.119V306H515.66z"/>
			<path fill="#FFF799" d="M532.1,286.021c0-3.66-0.12-6.72-0.24-9.36h7.92l0.42,4.08h0.18c1.2-1.92,4.14-4.74,9.06-4.74
				c6,0,10.499,4.02,10.499,12.66V306h-9.119v-16.259c0-3.78-1.32-6.36-4.619-6.36c-2.521,0-4.021,1.74-4.68,3.42
				c-0.24,0.6-0.301,1.44-0.301,2.28V306H532.1V286.021z"/>
		</g>
		<g>
			<path fill="#414042" d="M338.738,388.141c-2.82,0.959-8.16,2.279-13.499,2.279c-7.38,0-12.72-1.859-16.439-5.4
				c-3.66-3.539-5.7-8.818-5.7-14.759c0.06-13.439,9.839-21.119,23.099-21.119c5.22,0,9.239,1.021,11.219,1.92l-1.92,7.38
				c-2.22-1.02-4.92-1.74-9.359-1.74c-7.62,0-13.439,4.26-13.439,13.08c0,8.399,5.28,13.259,12.779,13.259
				c2.04,0,3.72-0.239,4.44-0.54v-8.52h-6.24v-7.14h15.059V388.141z"/>
			<path fill="#414042" d="M349.358,370.32c0-4.319-0.06-7.139-0.24-9.659h7.8l0.36,5.399h0.24c1.5-4.319,5.04-6.119,7.92-6.119
				c0.84,0,1.26,0.06,1.92,0.18v8.58c-0.72-0.12-1.44-0.24-2.46-0.24c-3.36,0-5.64,1.8-6.24,4.619c-0.12,0.601-0.18,1.32-0.18,2.041
				V390h-9.12V370.32z"/>
			<path fill="#414042" d="M399.518,382.92c0,2.76,0.12,5.46,0.48,7.08h-8.22l-0.54-2.939h-0.18c-1.92,2.34-4.92,3.6-8.399,3.6
				c-5.94,0-9.48-4.32-9.48-9c0-7.619,6.84-11.219,17.22-11.219v-0.36c0-1.62-0.84-3.84-5.34-3.84c-3,0-6.18,1.02-8.1,2.22
				l-1.68-5.88c2.04-1.14,6.06-2.64,11.399-2.64c9.78,0,12.839,5.76,12.839,12.719V382.92z M390.698,376.141
				c-4.8,0-8.52,1.14-8.52,4.619c0,2.34,1.56,3.48,3.6,3.48c2.22,0,4.14-1.5,4.74-3.359c0.12-0.48,0.18-1.021,0.18-1.561V376.141z"
				/>
			<path fill="#414042" d="M410.379,370.501c0-3.84-0.12-7.08-0.24-9.84h7.92l0.42,4.08h0.12c2.159-3.06,5.52-4.74,9.779-4.74
				c6.42,0,12.18,5.58,12.18,14.939c0,10.68-6.78,15.72-13.319,15.72c-3.54,0-6.3-1.439-7.62-3.359h-0.12v14.578h-9.119V370.501z
				 M419.498,377.4c0,0.721,0.061,1.32,0.18,1.92c0.601,2.46,2.7,4.32,5.34,4.32c3.96,0,6.3-3.301,6.3-8.28
				c0-4.68-2.1-8.22-6.18-8.22c-2.579,0-4.859,1.92-5.46,4.62c-0.119,0.479-0.18,1.08-0.18,1.62V377.4z"/>
			<path fill="#414042" d="M449.858,347.402h9.119v16.799h0.12c0.96-1.32,2.16-2.34,3.6-3.061c1.38-0.719,3.061-1.14,4.74-1.14
				c5.819,0,10.26,4.021,10.26,12.899V390h-9.12v-16.139c0-3.84-1.319-6.48-4.739-6.48c-2.4,0-3.9,1.561-4.561,3.24
				c-0.239,0.539-0.3,1.32-0.3,1.979V390h-9.119V347.402z"/>
			<path fill="#414042" d="M498.038,352.502c0,2.52-1.859,4.56-4.919,4.56c-2.881,0-4.74-2.04-4.74-4.56
				c0-2.58,1.92-4.561,4.859-4.561C496.179,347.941,497.979,349.922,498.038,352.502z M488.619,390v-29.339h9.119V390H488.619z"/>
			<path fill="#414042" d="M530.677,389.221c-1.62,0.779-4.68,1.379-8.159,1.379c-9.479,0-15.54-5.819-15.54-14.999
				c0-8.579,5.88-15.6,16.8-15.6c2.399,0,5.04,0.421,6.96,1.14l-1.44,6.78c-1.08-0.479-2.699-0.899-5.1-0.899
				c-4.8,0-7.92,3.42-7.859,8.219c0,5.34,3.6,8.221,8.039,8.221c2.16,0,3.84-0.361,5.22-0.961L530.677,389.221z"/>
			<path fill="#414042" d="M539.257,382.08c1.681,1.02,5.16,2.16,7.86,2.16c2.76,0,3.899-0.9,3.899-2.4c0-1.56-0.9-2.279-4.26-3.42
				c-6.12-2.039-8.46-5.34-8.399-8.819c0-5.52,4.68-9.659,11.939-9.659c3.42,0,6.42,0.84,8.22,1.74l-1.561,6.299
				c-1.319-0.72-3.899-1.68-6.359-1.68c-2.22,0-3.479,0.9-3.479,2.34c0,1.44,1.14,2.16,4.739,3.42c5.58,1.92,7.859,4.8,7.92,9.06
				c0,5.521-4.26,9.54-12.659,9.54c-3.84,0-7.26-0.9-9.48-2.1L539.257,382.08z"/>
		</g>
	</g>
</g>
</svg>
